<svg width="1920" height="969" xmlns="http://www.w3.org/2000/svg"><g><path d="M-94,-25L-126,34L80,19Z" fill="#6c0221" stroke="#6c0221"/><path d="M-94,-25L80,19L107,-107Z" fill="#650220" stroke="#650220"/><path d="M107,-107L80,19L237,-19Z" fill="#7e0a24" stroke="#7e0a24"/><path d="M107,-107L237,-19L317,-82Z" fill="#781627" stroke="#781627"/><path d="M107,-107L317,-82L520,-93Z" fill="#76292e" stroke="#76292e"/><path d="M107,-107L520,-93L1021,-118Z" fill="#835750" stroke="#835750"/><path d="M107,-107L1021,-118L1160,-124Z" fill="#827478" stroke="#827478"/><path d="M107,-107L1160,-124L1291,-127Z" fill="#817e86" stroke="#817e86"/><path d="M237,-19L80,19L278,58Z" fill="#a3152c" stroke="#a3152c"/><path d="M237,-19L278,58L317,-82Z" fill="#9a2131" stroke="#9a2131"/><path d="M317,-82L278,58L425,23Z" fill="#a82e38" stroke="#a82e38"/><path d="M317,-82L425,23L520,-93Z" fill="#953e40" stroke="#953e40"/><path d="M520,-93L425,23L568,108Z" fill="#bd5152" stroke="#bd5152"/><path d="M520,-93L568,108L638,-84Z" fill="#ae5b5c" stroke="#ae5b5c"/><path d="M520,-93L638,-84L1021,-118Z" fill="#8b7173" stroke="#8b7173"/><path d="M638,-84L568,108L733,130Z" fill="#d57070" stroke="#d57070"/><path d="M638,-84L733,130L830,-41Z" fill="#bd727c" stroke="#bd727c"/><path d="M638,-84L830,-41L1021,-118Z" fill="#947b85" stroke="#947b85"/><path d="M830,-41L733,130L841,76Z" fill="#d9838b" stroke="#d9838b"/><path d="M830,-41L841,76L962,82Z" fill="#d08795" stroke="#d08795"/><path d="M830,-41L962,82L1021,-118Z" fill="#aa7a8a" stroke="#aa7a8a"/><path d="M1021,-118L962,82L1167,101Z" fill="#b87484" stroke="#b87484"/><path d="M1021,-118L1167,101L1160,-124Z" fill="#8f6978" stroke="#8f6978"/><path d="M1160,-124L1167,101L1320,58Z" fill="#a16071" stroke="#a16071"/><path d="M1160,-124L1320,58L1291,-127Z" fill="#755866" stroke="#755866"/><path d="M1291,-127L1320,58L1389,-29Z" fill="#7a4d5d" stroke="#7a4d5d"/><path d="M1291,-127L1389,-29L1529,-77Z" fill="#59434f" stroke="#59434f"/><path d="M1291,-127L1529,-77L2008,-35Z" fill="#37212d" stroke="#37212d"/><path d="M1389,-29L1320,58L1409,124Z" fill="#9f515e" stroke="#9f515e"/><path d="M1389,-29L1409,124L1586,42Z" fill="#8d424f" stroke="#8d424f"/><path d="M1389,-29L1586,42L1529,-77Z" fill="#653243" stroke="#653243"/><path d="M1529,-77L1586,42L1693,-49Z" fill="#522233" stroke="#522233"/><path d="M1529,-77L1693,-49L2008,-35Z" fill="#300e1c" stroke="#300e1c"/><path d="M1693,-49L1586,42L1678,131Z" fill="#6d2331" stroke="#6d2331"/><path d="M1693,-49L1678,131L1870,33Z" fill="#5e1523" stroke="#5e1523"/><path d="M1693,-49L1870,33L1891,-29Z" fill="#390314" stroke="#390314"/><path d="M1693,-49L1891,-29L2008,-35Z" fill="#2b0010" stroke="#2b0010"/><path d="M1891,-29L1870,33L2008,-35Z" fill="#390012" stroke="#390012"/><path d="M2008,-35L1870,33L2075,21Z" fill="#410213" stroke="#410213"/><path d="M-126,34L-120,1129L-110,389Z" fill="#9a808b" stroke="#9a808b"/><path d="M-126,34L-110,389L-86,276Z" fill="#9c544f" stroke="#9c544f"/><path d="M-126,34L-86,276L58,185Z" fill="#a63439" stroke="#a63439"/><path d="M-126,34L58,185L80,19Z" fill="#9a1129" stroke="#9a1129"/><path d="M80,19L58,185L226,193Z" fill="#c32e38" stroke="#c32e38"/><path d="M80,19L226,193L278,58Z" fill="#c62332" stroke="#c62332"/><path d="M278,58L226,193L400,210Z" fill="#e0554b" stroke="#e0554b"/><path d="M278,58L400,210L425,23Z" fill="#d94945" stroke="#d94945"/><path d="M425,23L400,210L541,184Z" fill="#eb6e5c" stroke="#eb6e5c"/><path d="M425,23L541,184L568,108Z" fill="#e7695d" stroke="#e7695d"/><path d="M568,108L541,184L621,193Z" fill="#f88d76" stroke="#f88d76"/><path d="M568,108L621,193L733,130Z" fill="#f58f7f" stroke="#f58f7f"/><path d="M733,130L621,193L869,271Z" fill="#feb6a1" stroke="#feb6a1"/><path d="M733,130L869,271L841,76Z" fill="#fbaba0" stroke="#fbaba0"/><path d="M841,76L869,271L962,82Z" fill="#f6a8a5" stroke="#f6a8a5"/><path d="M962,82L869,271L1012,265Z" fill="#f9c0b2" stroke="#f9c0b2"/><path d="M962,82L1012,265L1167,101Z" fill="#e99d98" stroke="#e99d98"/><path d="M1167,101L1012,265L1067,283Z" fill="#ecb8a9" stroke="#ecb8a9"/><path d="M1167,101L1067,283L1128,334Z" fill="#e8bfad" stroke="#e8bfad"/><path d="M1167,101L1128,334L1312,277Z" fill="#dfb5a3" stroke="#dfb5a3"/><path d="M1167,101L1312,277L1320,58Z" fill="#cf827e" stroke="#cf827e"/><path d="M1320,58L1312,277L1409,124Z" fill="#c57973" stroke="#c57973"/><path d="M1409,124L1312,277L1454,171Z" fill="#c48477" stroke="#c48477"/><path d="M1409,124L1454,171L1586,42Z" fill="#a55254" stroke="#a55254"/><path d="M1586,42L1454,171L1678,131Z" fill="#974446" stroke="#974446"/><path d="M1678,131L1454,171L1626,268Z" fill="#a46458" stroke="#a46458"/><path d="M1678,131L1626,268L1708,234Z" fill="#986253" stroke="#986253"/><path d="M1678,131L1708,234L1870,33Z" fill="#813230" stroke="#813230"/><path d="M1870,33L1708,234L1875,266Z" fill="#823c31" stroke="#823c31"/><path d="M1870,33L1875,266L2026,180Z" fill="#7c322a" stroke="#7c322a"/><path d="M1870,33L2026,180L2075,21Z" fill="#651019" stroke="#651019"/><path d="M2075,21L2026,180L2076,402Z" fill="#804537" stroke="#804537"/><path d="M-86,276L-110,389L51,383Z" fill="#a97f83" stroke="#a97f83"/><path d="M-86,276L51,383L58,185Z" fill="#b56966" stroke="#b56966"/><path d="M58,185L51,383L178,393Z" fill="#c87c7b" stroke="#c87c7b"/><path d="M58,185L178,393L226,193Z" fill="#d46a60" stroke="#d46a60"/><path d="M226,193L178,393L355,338Z" fill="#e18d7f" stroke="#e18d7f"/><path d="M226,193L355,338L400,210Z" fill="#e8866c" stroke="#e8866c"/><path d="M400,210L355,338L481,341Z" fill="#f0aa8d" stroke="#f0aa8d"/><path d="M400,210L481,341L541,184Z" fill="#f5a280" stroke="#f5a280"/><path d="M541,184L481,341L621,193Z" fill="#faad8a" stroke="#faad8a"/><path d="M621,193L481,341L637,383Z" fill="#fbcbad" stroke="#fbcbad"/><path d="M621,193L637,383L869,271Z" fill="#fed7bb" stroke="#fed7bb"/><path d="M869,271L637,383L863,356Z" fill="#fff2e1" stroke="#fff2e1"/><path d="M869,271L863,356L996,323Z" fill="#fcf0e2" stroke="#fcf0e2"/><path d="M869,271L996,323L1012,265Z" fill="#f8e2d0" stroke="#f8e2d0"/><path d="M1012,265L996,323L1067,283Z" fill="#f2ddcc" stroke="#f2ddcc"/><path d="M1067,283L996,323L1128,334Z" fill="#eee1d3" stroke="#eee1d3"/><path d="M1312,277L1128,334L1306,342Z" fill="#d9cdc0" stroke="#d9cdc0"/><path d="M1312,277L1306,342L1419,378Z" fill="#cbc4b8" stroke="#cbc4b8"/><path d="M1312,277L1419,378L1454,171Z" fill="#c3aa96" stroke="#c3aa96"/><path d="M1454,171L1419,378L1589,334Z" fill="#b4a190" stroke="#b4a190"/><path d="M1454,171L1589,334L1626,268Z" fill="#a98974" stroke="#a98974"/><path d="M1626,268L1589,334L1668,337Z" fill="#9e9182" stroke="#9e9182"/><path d="M1626,268L1668,337L1708,234Z" fill="#98806d" stroke="#98806d"/><path d="M1708,234L1668,337L1875,266Z" fill="#8c7461" stroke="#8c7461"/><path d="M1875,266L1668,337L1728,476Z" fill="#8b8b83" stroke="#8b8b83"/><path d="M1875,266L1728,476L1906,432Z" fill="#80807b" stroke="#80807b"/><path d="M1875,266L1906,432L2076,402Z" fill="#808078" stroke="#808078"/><path d="M1875,266L2076,402L2026,180Z" fill="#806956" stroke="#806956"/><path d="M-110,389L-120,1129L-96,639Z" fill="#674b57" stroke="#674b57"/><path d="M-110,389L-96,639L-99,503Z" fill="#9d808c" stroke="#9d808c"/><path d="M-110,389L-99,503L51,383Z" fill="#a8808c" stroke="#a8808c"/><path d="M51,383L-99,503L100,560Z" fill="#b78190" stroke="#b78190"/><path d="M51,383L100,560L178,393Z" fill="#cb8793" stroke="#cb8793"/><path d="M178,393L100,560L218,488Z" fill="#d78b95" stroke="#d78b95"/><path d="M178,393L218,488L355,338Z" fill="#e19b99" stroke="#e19b99"/><path d="M355,338L218,488L420,514Z" fill="#e9aca4" stroke="#e9aca4"/><path d="M355,338L420,514L481,341Z" fill="#f1beac" stroke="#f1beac"/><path d="M481,341L420,514L502,552Z" fill="#f5c7b8" stroke="#f5c7b8"/><path d="M481,341L502,552L637,383Z" fill="#fad5c2" stroke="#fad5c2"/><path d="M637,383L502,552L563,617Z" fill="#fbd9c9" stroke="#fbd9c9"/><path d="M637,383L563,617L735,571Z" fill="#fde5d9" stroke="#fde5d9"/><path d="M637,383L735,571L801,539Z" fill="#fef0e7" stroke="#fef0e7"/><path d="M637,383L801,539L863,356Z" fill="#fff4ed" stroke="#fff4ed"/><path d="M863,356L801,539L1035,565Z" fill="#fdfdfd" stroke="#fdfdfd"/><path d="M863,356L1035,565L996,323Z" fill="#f7f7f5" stroke="#f7f7f5"/><path d="M996,323L1035,565L1128,334Z" fill="#efefec" stroke="#efefec"/><path d="M1128,334L1035,565L1170,559Z" fill="#e9e9e9" stroke="#e9e9e9"/><path d="M1128,334L1170,559L1306,342Z" fill="#dfdfdc" stroke="#dfdfdc"/><path d="M1306,342L1170,559L1319,560Z" fill="#d6d6d6" stroke="#d6d6d6"/><path d="M1306,342L1319,560L1419,378Z" fill="#cacac9" stroke="#cacac9"/><path d="M1419,378L1319,560L1475,495Z" fill="#c2c2c2" stroke="#c2c2c2"/><path d="M1419,378L1475,495L1589,334Z" fill="#b3b3af" stroke="#b3b3af"/><path d="M1589,334L1475,495L1626,474Z" fill="#a8a8a7" stroke="#a8a8a7"/><path d="M1589,334L1626,474L1668,337Z" fill="#9e9e98" stroke="#9e9e98"/><path d="M1668,337L1626,474L1728,476Z" fill="#979796" stroke="#979796"/><path d="M1906,432L1728,476L1869,570Z" fill="#808080" stroke="#808080"/><path d="M1906,432L1869,570L2053,478Z" fill="#808080" stroke="#808080"/><path d="M1906,432L2053,478L2076,402Z" fill="#80807f" stroke="#80807f"/><path d="M2076,402L2053,478L2038,633Z" fill="#808080" stroke="#808080"/><path d="M2076,402L2038,633L2030,1027Z" fill="#575757" stroke="#575757"/><path d="M-99,503L-96,639L100,560Z" fill="#a57887" stroke="#a57887"/><path d="M100,560L-96,639L67,650Z" fill="#a87180" stroke="#a87180"/><path d="M100,560L67,650L169,639Z" fill="#bb7783" stroke="#bb7783"/><path d="M100,560L169,639L218,488Z" fill="#d0848e" stroke="#d0848e"/><path d="M218,488L169,639L344,718Z" fill="#d08a8c" stroke="#d08a8c"/><path d="M218,488L344,718L420,514Z" fill="#e0a39c" stroke="#e0a39c"/><path d="M420,514L344,718L502,552Z" fill="#e5b2a5" stroke="#e5b2a5"/><path d="M502,552L344,718L563,617Z" fill="#e0b3a4" stroke="#e0b3a4"/><path d="M735,571L563,617L730,666Z" fill="#edd9ce" stroke="#edd9ce"/><path d="M735,571L730,666L801,539Z" fill="#f3e7e0" stroke="#f3e7e0"/><path d="M801,539L730,666L850,721Z" fill="#e5ded9" stroke="#e5ded9"/><path d="M801,539L850,721L946,672Z" fill="#e5e5e4" stroke="#e5e5e4"/><path d="M801,539L946,672L1035,565Z" fill="#eeeeee" stroke="#eeeeee"/><path d="M1035,565L946,672L1066,625Z" fill="#e1e1e1" stroke="#e1e1e1"/><path d="M1035,565L1066,625L1170,559Z" fill="#e1e1e1" stroke="#e1e1e1"/><path d="M1170,559L1066,625L1273,708Z" fill="#cdcdcd" stroke="#cdcdcd"/><path d="M1170,559L1273,708L1319,560Z" fill="#c9c9c9" stroke="#c9c9c9"/><path d="M1319,560L1273,708L1477,655Z" fill="#b0b0b0" stroke="#b0b0b0"/><path d="M1319,560L1477,655L1475,495Z" fill="#b7b7b7" stroke="#b7b7b7"/><path d="M1475,495L1477,655L1626,474Z" fill="#ababab" stroke="#ababab"/><path d="M1626,474L1477,655L1571,705Z" fill="#999999" stroke="#999999"/><path d="M1626,474L1571,705L1705,692Z" fill="#8a8a8a" stroke="#8a8a8a"/><path d="M1626,474L1705,692L1728,476Z" fill="#929292" stroke="#929292"/><path d="M1728,476L1705,692L1869,570Z" fill="#808080" stroke="#808080"/><path d="M1869,570L1705,692L1933,646Z" fill="#696969" stroke="#696969"/><path d="M1869,570L1933,646L2053,478Z" fill="#797979" stroke="#797979"/><path d="M2053,478L1933,646L2038,633Z" fill="#757575" stroke="#757575"/><path d="M-96,639L-120,1129L-89,970Z" fill="#250713" stroke="#250713"/><path d="M-96,639L-89,970L-57,840Z" fill="#492733" stroke="#492733"/><path d="M-96,639L-57,840L67,650Z" fill="#7c4f5d" stroke="#7c4f5d"/><path d="M67,650L-57,840L102,792Z" fill="#763d4c" stroke="#763d4c"/><path d="M67,650L102,792L169,639Z" fill="#a05c68" stroke="#a05c68"/><path d="M169,639L102,792L252,813Z" fill="#994c55" stroke="#994c55"/><path d="M169,639L252,813L344,718Z" fill="#ab6667" stroke="#ab6667"/><path d="M344,718L252,813L392,867Z" fill="#955851" stroke="#955851"/><path d="M344,718L392,867L545,816Z" fill="#9d6b5e" stroke="#9d6b5e"/><path d="M344,718L545,816L563,617Z" fill="#c29687" stroke="#c29687"/><path d="M563,617L545,816L730,666Z" fill="#cfb3a5" stroke="#cfb3a5"/><path d="M730,666L545,816L678,877Z" fill="#ae978b" stroke="#ae978b"/><path d="M730,666L678,877L796,864Z" fill="#aa9d95" stroke="#aa9d95"/><path d="M730,666L796,864L850,721Z" fill="#beb6b1" stroke="#beb6b1"/><path d="M850,721L796,864L1004,831Z" fill="#a9a9a9" stroke="#a9a9a9"/><path d="M850,721L1004,831L946,672Z" fill="#bcbcbc" stroke="#bcbcbc"/><path d="M946,672L1004,831L1067,797Z" fill="#acacac" stroke="#acacac"/><path d="M946,672L1067,797L1066,625Z" fill="#c5c5c5" stroke="#c5c5c5"/><path d="M1066,625L1067,797L1273,708Z" fill="#b5b5b5" stroke="#b5b5b5"/><path d="M1273,708L1067,797L1228,825Z" fill="#959595" stroke="#959595"/><path d="M1273,708L1228,825L1464,876Z" fill="#797979" stroke="#797979"/><path d="M1273,708L1464,876L1477,655Z" fill="#828282" stroke="#828282"/><path d="M1477,655L1464,876L1571,705Z" fill="#727272" stroke="#727272"/><path d="M1571,705L1464,876L1614,776Z" fill="#5b5b5b" stroke="#5b5b5b"/><path d="M1571,705L1614,776L1705,692Z" fill="#676767" stroke="#676767"/><path d="M1705,692L1614,776L1690,768Z" fill="#595959" stroke="#595959"/><path d="M1705,692L1690,768L1892,810Z" fill="#474747" stroke="#474747"/><path d="M1705,692L1892,810L1933,646Z" fill="#4c4c4c" stroke="#4c4c4c"/><path d="M1933,646L1892,810L2010,862Z" fill="#363636" stroke="#363636"/><path d="M1933,646L2010,862L2038,633Z" fill="#4d4d4d" stroke="#4d4d4d"/><path d="M2038,633L2010,862L2030,1027Z" fill="#1f1f1f" stroke="#1f1f1f"/><path d="M-57,840L-89,970L127,943Z" fill="#380615" stroke="#380615"/><path d="M-57,840L127,943L102,792Z" fill="#591d2b" stroke="#591d2b"/><path d="M102,792L127,943L252,813Z" fill="#722731" stroke="#722731"/><path d="M252,813L127,943L248,971Z" fill="#651c22" stroke="#651c22"/><path d="M252,813L248,971L392,867Z" fill="#763632" stroke="#763632"/><path d="M392,867L248,971L407,978Z" fill="#6b3027" stroke="#6b3027"/><path d="M392,867L407,978L552,944Z" fill="#754638" stroke="#754638"/><path d="M392,867L552,944L545,816Z" fill="#8b6050" stroke="#8b6050"/><path d="M545,816L552,944L678,877Z" fill="#8e6f61" stroke="#8e6f61"/><path d="M678,877L552,944L710,1009Z" fill="#7d665a" stroke="#7d665a"/><path d="M678,877L710,1009L824,954Z" fill="#7f726a" stroke="#7f726a"/><path d="M678,877L824,954L796,864Z" fill="#8b817b" stroke="#8b817b"/><path d="M796,864L824,954L954,972Z" fill="#81807f" stroke="#81807f"/><path d="M796,864L954,972L1004,831Z" fill="#8b8b8b" stroke="#8b8b8b"/><path d="M1004,831L954,972L1115,1004Z" fill="#727272" stroke="#727272"/><path d="M1004,831L1115,1004L1067,797Z" fill="#818181" stroke="#818181"/><path d="M1067,797L1115,1004L1228,825Z" fill="#7a7a7a" stroke="#7a7a7a"/><path d="M1228,825L1115,1004L1256,1002Z" fill="#606060" stroke="#606060"/><path d="M1228,825L1256,1002L1464,876Z" fill="#5a5a5a" stroke="#5a5a5a"/><path d="M1464,876L1256,1002L1464,940Z" fill="#444444" stroke="#444444"/><path d="M1464,876L1464,940L1576,976Z" fill="#343434" stroke="#343434"/><path d="M1464,876L1576,976L1614,776Z" fill="#3d3d3d" stroke="#3d3d3d"/><path d="M1614,776L1576,976L1784,918Z" fill="#292929" stroke="#292929"/><path d="M1614,776L1784,918L1690,768Z" fill="#393939" stroke="#393939"/><path d="M1690,768L1784,918L1892,810Z" fill="#282828" stroke="#282828"/><path d="M1892,810L1784,918L1917,949Z" fill="#0e0e0e" stroke="#0e0e0e"/><path d="M1892,810L1917,949L2010,862Z" fill="#141414" stroke="#141414"/><path d="M2010,862L1917,949L2030,1027Z" fill="#000000" stroke="#000000"/><path d="M-89,970L-120,1129L106,1125Z" fill="#2c000f" stroke="#2c000f"/><path d="M-89,970L106,1125L127,943Z" fill="#3e0411" stroke="#3e0411"/><path d="M127,943L106,1125L248,971Z" fill="#560b15" stroke="#560b15"/><path d="M248,971L106,1125L246,1124Z" fill="#5c1218" stroke="#5c1218"/><path d="M248,971L246,1124L407,978Z" fill="#662622" stroke="#662622"/><path d="M407,978L246,1124L339,1171Z" fill="#692c25" stroke="#692c25"/><path d="M407,978L339,1171L558,1093Z" fill="#734134" stroke="#734134"/><path d="M407,978L558,1093L552,944Z" fill="#794f3f" stroke="#794f3f"/><path d="M552,944L558,1093L710,1009Z" fill="#7c6052" stroke="#7c6052"/><path d="M710,1009L558,1093L715,1176Z" fill="#7e685c" stroke="#7e685c"/><path d="M710,1009L715,1176L831,1169Z" fill="#7f736c" stroke="#7f736c"/><path d="M710,1009L831,1169L824,954Z" fill="#7f7772" stroke="#7f7772"/><path d="M824,954L831,1169L967,1072Z" fill="#808080" stroke="#808080"/><path d="M824,954L967,1072L954,972Z" fill="#7c7c7c" stroke="#7c7c7c"/><path d="M954,972L967,1072L1115,1004Z" fill="#737373" stroke="#737373"/><path d="M1115,1004L967,1072L1128,1098Z" fill="#6e6e6e" stroke="#6e6e6e"/><path d="M1115,1004L1128,1098L1256,1002Z" fill="#636363" stroke="#636363"/><path d="M1256,1002L1128,1098L1309,1176Z" fill="#5c5c5c" stroke="#5c5c5c"/><path d="M1256,1002L1309,1176L1407,1093Z" fill="#4e4e4e" stroke="#4e4e4e"/><path d="M1256,1002L1407,1093L1464,940Z" fill="#474747" stroke="#474747"/><path d="M1464,940L1407,1093L1576,976Z" fill="#353535" stroke="#353535"/><path d="M1576,976L1407,1093L1585,1151Z" fill="#2f2f2f" stroke="#2f2f2f"/><path d="M1576,976L1585,1151L1762,1066Z" fill="#1d1d1d" stroke="#1d1d1d"/><path d="M1576,976L1762,1066L1784,918Z" fill="#131313" stroke="#131313"/><path d="M1784,918L1762,1066L1883,1076Z" fill="#040404" stroke="#040404"/><path d="M1784,918L1883,1076L1917,949Z" fill="#000000" stroke="#000000"/><path d="M1917,949L1883,1076L1977,1102Z" fill="#000000" stroke="#000000"/><path d="M1917,949L1977,1102L2030,1027Z" fill="#000000" stroke="#000000"/><path d="M-120,1129L339,1171L106,1125Z" fill="#4b0813" stroke="#4b0813"/><path d="M106,1125L339,1171L246,1124Z" fill="#5f181b" stroke="#5f181b"/><path d="M339,1171L715,1176L558,1093Z" fill="#7b5544" stroke="#7b5544"/><path d="M715,1176L1309,1176L831,1169Z" fill="#797979" stroke="#797979"/><path d="M831,1169L1309,1176L1128,1098Z" fill="#6c6c6c" stroke="#6c6c6c"/><path d="M831,1169L1128,1098L967,1072Z" fill="#777777" stroke="#777777"/><path d="M1309,1176L1585,1151L1407,1093Z" fill="#3e3e3e" stroke="#3e3e3e"/><path d="M1585,1151L1977,1102L1883,1076Z" fill="#030303" stroke="#030303"/><path d="M1585,1151L1883,1076L1762,1066Z" fill="#0e0e0e" stroke="#0e0e0e"/></g></svg>